PathFileType	4	(X/Y/Z)	Run_500 03
DataRate	CameraRate	NumFrames	NumMarkers	Units	OrigDataRate	OrigDataStartFrame	OrigNumFrames
100	100	4	45	mm	100	76	137
Frame#	Time	RASI			LPSI			RPSI			RTH1			RTH2			RTH3			LTH1			LTH2			LTH3			RTB1			RTB2			RTB3			RLMAL			RMMAL			LTB1			LTB2			LTB3			RCAL			RTOE			RMT5			LCAL			LTOE			LMT5			LACR			RACR			CLAV			C7			LPSH			RUA1			RUA2			RUA3			RLEL			RMEL			LUA1			LUA2			LUA3			LLEL			LMEL			RFAsuperior			RFAradius			RFAulna			LFAsuperior			LFAradius			LFAulna			LASI			
		X1	Y1	Z1	X2	Y2	Z2	X3	Y3	Z3	X4	Y4	Z4	X5	Y5	Z5	X6	Y6	Z6	X7	Y7	Z7	X8	Y8	Z8	X9	Y9	Z9	X10	Y10	Z10	X11	Y11	Z11	X12	Y12	Z12	X13	Y13	Z13	X14	Y14	Z14	X15	Y15	Z15	X16	Y16	Z16	X17	Y17	Z17	X18	Y18	Z18	X19	Y19	Z19	X20	Y20	Z20	X21	Y21	Z21	X22	Y22	Z22	X23	Y23	Z23	X24	Y24	Z24	X25	Y25	Z25	X26	Y26	Z26	X27	Y27	Z27	X28	Y28	Z28	X29	Y29	Z29	X30	Y30	Z30	X31	Y31	Z31	X32	Y32	Z32	X33	Y33	Z33	X34	Y34	Z34	X35	Y35	Z35	X36	Y36	Z36	X37	Y37	Z37	X38	Y38	Z38	X39	Y39	Z39	X40	Y40	Z40	X41	Y41	Z41	X42	Y42	Z42	X43	Y43	Z43	X44	Y44	Z44	X45	Y45	Z45	

69	1.01	923.196914	1018.974243	-224.768626	762.073096	1052.367798	-404.644569	762.979471	1055.79032	-319.27384	883.797945	771.858592	-190.913792	974.846532	728.058777	-224.044301	935.001972	612.16869	-233.512561	865.855415	784.701896	-510.172563	969.07704	695.515389	-508.62281	945.8589909999999	597.116678	-492.725218	972.971783	374.623326	-304.610898	919.904662	329.091507	-259.80539	890.41275	207.103461	-310.025577	806.418085	120.030537	-294.081869	830.39769	135.250139	-374.919872	885.928006	443.621706	-458.095165	774.633769	517.272571	-479.691845	694.7691160000001	441.331607	-446.138974	738.057635	100.954418	-360.458598	963.627946	62.213521	-325.949496	883.737921	56.224686	-258.017433	535.753004	523.855521	-399.037186	543.35909	301.061292	-424.244398	516.829867	359.617741	-489.187666	911.304478	1523.034075	-487.684377	929.428321	1472.851767	-167.844733	983.274511	1428.888971	-311.21497	879.79947	1530.289926	-322.222782	824.153151	1496.138537	-492.466096	878.6425850000001	1330.940161	-72.28835599999999	791.953636	1290.512061	-78.040496	795.7673109999999	1241.514654	-26.377343	802.649811	1178.498826	6.488833	767.894549	1157.037763	-71.64178200000001	801.790553	1432.614221	-559.259011	725.309202	1371.183588	-546.748468	720.281302	1344.282429	-617.984097	702.208067	1275.125825	-658.643733	674.277343	1251.219222	-575.760036	840.623308	1107.151018	-2.665353	1017.116304	1063.79373	-83.704286	992.709696	1008.241444	-52.538592	755.6315970000001	1193.518041	-639.351894	917.3323360000001	1179.414758	-574.59435	900.34187	1122.532031	-608.705425	930.542721	1004.659889	-464.433008	
70	1.02	921.385269	1018.040188	-224.087361	759.786936	1054.884967	-402.80097	761.047602	1057.84218	-316.582453	871.493354	769.161969	-191.08999	959.418305	717.839294	-222.395325	912.252608	604.866406	-234.718642	873.924538	789.528554	-510.6572	985.854467	709.132878	-506.677416	968.767415	608.7884340000001	-491.464839	940.950023	365.802765	-304.387458	885.916003	322.399286	-260.123147	851.343573	202.609226	-310.105699	763.854998	120.728388	-293.392785	788.368685	135.158455	-374.708982	918.784949	450.72955	-457.236372	802.5315859999999	516.4173479999999	-478.717058	727.633108	433.900751	-447.496964	694.884423	101.201594	-360.498608	920.042661	61.913675	-324.89416	840.0451420000001	56.249411	-257.20808	559.806651	503.031507	-402.447474	590.631582	282.069418	-427.045738	559.41687	337.700042	-492.839151	907.931619	1524.241156	-487.72059	933.9509839999999	1474.158036	-169.080259	983.230267	1429.313213	-313.501889	879.57163	1531.116939	-321.8192	820.41988	1498.360837	-490.522793	886.860508	1330.151657	-73.956136	800.714109	1286.799667	-79.00932899999999	807.08075	1237.793421	-27.509886	817.485918	1174.762819	4.390847	781.111137	1152.429014	-72.911486	795.784475	1435.671342	-556.30546	719.104011	1375.995032	-540.18679	711.414267	1348.995628	-611.599525	690.217849	1279.954667	-651.6077340000001	665.122526	1256.810863	-567.972984	859.359765	1105.391119	-7.12064	1034.433825	1072.416225	-94.31169	1013.841791	1015.551151	-62.528953	741.384155	1195.9249	-634.974819	904.948759	1176.482829	-576.915574	884.308396	1119.88773	-609.412637	927.247658	1008.266513	-464.212569	
71	1.03	921.659662	1018.474905	-225.816674	758.920784	1059.333881	-401.123763	760.025391	1061.71587	-313.572353	859.649489	768.792914	-191.28878	943.279903	709.553784	-221.363458	890.0093460000001	600.44573	-235.034214	881.688794	796.147681	-511.020712	1001.297763	725.190047	-504.897839	990.688546	622.536524	-490.413867	907.552623	359.822671	-302.843898	850.092201	318.658777	-259.796965	812.1070110000001	200.722932	-309.718182	722.092373	122.605799	-293.054499	748.231735	135.957398	-374.939102	950.14082	459.545926	-456.022211	828.69499	515.4377030000001	-477.688036	760.608341	426.094158	-448.373171	652.544688	102.326894	-361.347454	877.0307780000001	61.947521	-324.402056	797.030265	56.31914	-257.10564	585.580973	479.195058	-404.431144	639.8962739999999	262.729034	-430.409937	603.432273	315.346882	-496.251142	902.7525889999999	1527.403926	-487.376164	937.980174	1477.576804	-170.09135	983.117761	1432.019583	-315.555314	878.792004	1533.414521	-321.379734	815.435898	1501.745125	-487.701875	893.996853	1332.253981	-75.582769	808.659689	1286.413848	-79.895714	817.285567	1237.224217	-28.98294	830.316745	1174.225169	1.643091	792.33986	1151.899476	-74.932034	788.8920890000001	1440.390992	-552.917143	712.54278	1382.593367	-534.10937	702.324702	1355.114625	-605.204513	677.913645	1286.083161	-644.315606	655.469571	1264.071111	-559.629359	875.796362	1107.427027	-13.209343	1048.835161	1086.816713	-107.293872	1032.837565	1028.199528	-75.97619	727.321279	1200.319767	-628.850461	892.553984	1178.114548	-577.177576	869.045255	1121.237431	-607.030265	925.714797	1013.645118	-464.376531	
72	1.04	923.54657	1020.210335	-228.738701	759.162253	1064.941664	-400.21129	759.994313	1066.664577	-311.54782	848.4468900000001	770.544134	-191.734566	927.218823	705.1018340000001	-221.669427	868.37396	599.82194	-234.538267	888.462228	804.548783	-510.946219	1014.215772	742.708609	-503.211204	1010.213299	638.354838	-489.284645	873.4363080000001	357.673199	-300.8528	813.729688	318.721752	-258.984085	772.503653	202.354836	-308.858522	680.798346	126.229759	-292.690631	709.131907	138.323594	-375.127715	979.748692	469.605293	-454.443077	853.367119	513.807648	-477.005863	793.988935	417.950544	-448.621331	610.87351	105.944569	-362.009323	833.604134	61.968669	-324.413531	754.084215	56.574997	-257.263977	613.863285	452.970342	-405.121169	690.7947799999999	243.68098	-433.93999	649.026359	293.081952	-499.279988	896.408429	1532.248631	-486.832922	941.215684	1482.927504	-170.907693	983.024837	1437.009122	-317.49302	878.099743	1537.740462	-320.842753	809.779772	1506.42662	-484.146245	900.340769	1336.519958	-77.28021	815.794749	1289.04	-80.117676	826.476844	1239.229505	-30.450622	841.519683	1176.295406	-1.473182	801.659177	1154.636829	-77.413945	781.099465	1446.583089	-548.955251	705.077746	1390.399803	-528.541498	692.483939	1362.185672	-598.8279240000001	665.216832	1293.378605	-636.563598	645.25224	1272.53075	-550.8273359999999	889.818188	1112.705383	-20.517399	1059.783646	1105.81117	-121.765204	1048.854938	1045.254914	-91.92444500000001	713.688191	1206.867586	-621.252261	880.492588	1183.956791	-575.700585	855.143073	1126.545086	-602.647773	925.3636279999999	1019.889149	-465.224615	
